<svg xmlns="http://www.w3.org/2000/svg" xmlns:xlink="http://www.w3.org/1999/xlink" id="&#xD1;&#xEB;&#xEE;&#xE9;_1" data-name="&#xD1;&#xEB;&#xEE;&#xE9; 1" viewBox="0 0 823.18 660.19"><defs><style>.cls-1,.cls-12,.cls-13,.cls-14,.cls-15,.cls-16,.cls-19,.cls-2{fill:#6ee8fc;}.cls-1{opacity:0.3;}.cls-3{fill:url(#Áåçûìÿííûé_ãðàäèåíò_388);}.cls-4{fill:#0c0f38;}.cls-13,.cls-4{opacity:0.6;}.cls-5{fill:url(#Áåçûìÿííûé_ãðàäèåíò_377);}.cls-33,.cls-6{fill:#d4088c;}.cls-7{fill:url(#Áåçûìÿííûé_ãðàäèåíò_300);}.cls-8{fill:#6de0f6;}.cls-9{fill:#18d0f7;}.cls-10{fill:#25bfec;}.cls-11{fill:#267fe5;}.cls-12,.cls-32,.cls-33{opacity:0.8;}.cls-14,.cls-34{opacity:0.4;}.cls-15{opacity:0.2;}.cls-16{opacity:0.1;}.cls-17{fill:url(#Áåçûìÿííûé_ãðàäèåíò_377-2);}.cls-18{fill:url(#Áåçûìÿííûé_ãðàäèåíò_300-2);}.cls-19{opacity:0.5;}.cls-20{fill:url(#Áåçûìÿííûé_ãðàäèåíò_377-3);}.cls-21{fill:url(#Áåçûìÿííûé_ãðàäèåíò_300-3);}.cls-22{fill:url(#Áåçûìÿííûé_ãðàäèåíò_377-4);}.cls-23{fill:url(#Áåçûìÿííûé_ãðàäèåíò_300-4);}.cls-24{fill:url(#Áåçûìÿííûé_ãðàäèåíò_377-5);}.cls-25{fill:url(#Áåçûìÿííûé_ãðàäèåíò_300-5);}.cls-26,.cls-34{fill:#fff;}.cls-27{fill:url(#Áåçûìÿííûé_ãðàäèåíò_300-6);}.cls-28{fill:url(#Áåçûìÿííûé_ãðàäèåíò_300-7);}.cls-29{fill:url(#Áåçûìÿííûé_ãðàäèåíò_478);}.cls-30{fill:url(#Áåçûìÿííûé_ãðàäèåíò_377-6);}.cls-31{fill:url(#Áåçûìÿííûé_ãðàäèåíò_478-2);}.cls-32{fill:#6ee1f8;}.cls-35{fill:url(#Áåçûìÿííûé_ãðàäèåíò_102);}.cls-36{fill:url(#Áåçûìÿííûé_ãðàäèåíò_377-7);}.cls-37{fill:url(#Áåçûìÿííûé_ãðàäèåíò_388-2);}.cls-38{fill:url(#Áåçûìÿííûé_ãðàäèåíò_300-8);}.cls-39{fill:url(#Áåçûìÿííûé_ãðàäèåíò_102-2);}.cls-40{fill:url(#Áåçûìÿííûé_ãðàäèåíò_377-8);}.cls-41{fill:url(#Áåçûìÿííûé_ãðàäèåíò_388-3);}.cls-42{fill:url(#Áåçûìÿííûé_ãðàäèåíò_300-9);}.cls-43{fill:url(#Áåçûìÿííûé_ãðàäèåíò_102-3);}.cls-44{fill:url(#Áåçûìÿííûé_ãðàäèåíò_377-9);}.cls-45{fill:url(#Áåçûìÿííûé_ãðàäèåíò_388-4);}.cls-46{fill:url(#Áåçûìÿííûé_ãðàäèåíò_300-10);}</style><linearGradient id="&#xC1;&#xE5;&#xE7;&#xFB;&#xEC;&#xFF;&#xED;&#xED;&#xFB;&#xE9;_&#xE3;&#xF0;&#xE0;&#xE4;&#xE8;&#xE5;&#xED;&#xF2;_388" x1="180.05" y1="376.03" x2="319.75" y2="376.03" gradientUnits="userSpaceOnUse"><stop offset="0" stop-color="#d4088c"></stop><stop offset="0.23" stop-color="#d4088c"></stop><stop offset="0.51" stop-color="#6ee1f8"></stop><stop offset="0.78" stop-color="#6ee8fc"></stop><stop offset="1" stop-color="#6ee8fc"></stop></linearGradient><linearGradient id="&#xC1;&#xE5;&#xE7;&#xFB;&#xEC;&#xFF;&#xED;&#xED;&#xFB;&#xE9;_&#xE3;&#xF0;&#xE0;&#xE4;&#xE8;&#xE5;&#xED;&#xF2;_377" x1="-72.89" y1="358.66" x2="66.04" y2="358.66" gradientTransform="translate(253.32)" gradientUnits="userSpaceOnUse"><stop offset="0" stop-color="#a31fa9"></stop><stop offset="0.07" stop-color="#8b17a0"></stop><stop offset="0.15" stop-color="#740f98"></stop><stop offset="0.24" stop-color="#640a92"></stop><stop offset="0.34" stop-color="#5b078f"></stop><stop offset="0.48" stop-color="#58068e"></stop><stop offset="0.63" stop-color="#4d22a3"></stop><stop offset="0.94" stop-color="#3168da"></stop><stop offset="1" stop-color="#2c75e4"></stop></linearGradient><linearGradient id="&#xC1;&#xE5;&#xE7;&#xFB;&#xEC;&#xFF;&#xED;&#xED;&#xFB;&#xE9;_&#xE3;&#xF0;&#xE0;&#xE4;&#xE8;&#xE5;&#xED;&#xF2;_300" x1="334.51" y1="1251.03" x2="447.95" y2="1251.03" gradientTransform="matrix(0.87, 0.5, -0.87, 0.5, 827.87, -485.21)" gradientUnits="userSpaceOnUse"><stop offset="0" stop-color="#8d139b"></stop><stop offset="0.17" stop-color="#851ba1"></stop><stop offset="0.43" stop-color="#6e33b2"></stop><stop offset="0.76" stop-color="#4958cd"></stop><stop offset="1" stop-color="#2979e4"></stop></linearGradient><linearGradient id="&#xC1;&#xE5;&#xE7;&#xFB;&#xEC;&#xFF;&#xED;&#xED;&#xFB;&#xE9;_&#xE3;&#xF0;&#xE0;&#xE4;&#xE8;&#xE5;&#xED;&#xF2;_377-2" x1="-72.89" y1="309.8" x2="66.04" y2="309.8" xlink:href="#&#xC1;&#xE5;&#xE7;&#xFB;&#xEC;&#xFF;&#xED;&#xED;&#xFB;&#xE9;_&#xE3;&#xF0;&#xE0;&#xE4;&#xE8;&#xE5;&#xED;&#xF2;_377"></linearGradient><linearGradient id="&#xC1;&#xE5;&#xE7;&#xFB;&#xEC;&#xFF;&#xED;&#xED;&#xFB;&#xE9;_&#xE3;&#xF0;&#xE0;&#xE4;&#xE8;&#xE5;&#xED;&#xF2;_300-2" x1="285.65" y1="1202.17" x2="399.09" y2="1202.17" xlink:href="#&#xC1;&#xE5;&#xE7;&#xFB;&#xEC;&#xFF;&#xED;&#xED;&#xFB;&#xE9;_&#xE3;&#xF0;&#xE0;&#xE4;&#xE8;&#xE5;&#xED;&#xF2;_300"></linearGradient><linearGradient id="&#xC1;&#xE5;&#xE7;&#xFB;&#xEC;&#xFF;&#xED;&#xED;&#xFB;&#xE9;_&#xE3;&#xF0;&#xE0;&#xE4;&#xE8;&#xE5;&#xED;&#xF2;_377-3" x1="-72.89" y1="260.94" x2="66.04" y2="260.94" xlink:href="#&#xC1;&#xE5;&#xE7;&#xFB;&#xEC;&#xFF;&#xED;&#xED;&#xFB;&#xE9;_&#xE3;&#xF0;&#xE0;&#xE4;&#xE8;&#xE5;&#xED;&#xF2;_377"></linearGradient><linearGradient id="&#xC1;&#xE5;&#xE7;&#xFB;&#xEC;&#xFF;&#xED;&#xED;&#xFB;&#xE9;_&#xE3;&#xF0;&#xE0;&#xE4;&#xE8;&#xE5;&#xED;&#xF2;_300-3" x1="236.79" y1="1153.31" x2="350.23" y2="1153.31" xlink:href="#&#xC1;&#xE5;&#xE7;&#xFB;&#xEC;&#xFF;&#xED;&#xED;&#xFB;&#xE9;_&#xE3;&#xF0;&#xE0;&#xE4;&#xE8;&#xE5;&#xED;&#xF2;_300"></linearGradient><linearGradient id="&#xC1;&#xE5;&#xE7;&#xFB;&#xEC;&#xFF;&#xED;&#xED;&#xFB;&#xE9;_&#xE3;&#xF0;&#xE0;&#xE4;&#xE8;&#xE5;&#xED;&#xF2;_377-4" x1="-72.89" y1="212.07" x2="66.04" y2="212.07" xlink:href="#&#xC1;&#xE5;&#xE7;&#xFB;&#xEC;&#xFF;&#xED;&#xED;&#xFB;&#xE9;_&#xE3;&#xF0;&#xE0;&#xE4;&#xE8;&#xE5;&#xED;&#xF2;_377"></linearGradient><linearGradient id="&#xC1;&#xE5;&#xE7;&#xFB;&#xEC;&#xFF;&#xED;&#xED;&#xFB;&#xE9;_&#xE3;&#xF0;&#xE0;&#xE4;&#xE8;&#xE5;&#xED;&#xF2;_300-4" x1="187.93" y1="1104.45" x2="301.37" y2="1104.45" xlink:href="#&#xC1;&#xE5;&#xE7;&#xFB;&#xEC;&#xFF;&#xED;&#xED;&#xFB;&#xE9;_&#xE3;&#xF0;&#xE0;&#xE4;&#xE8;&#xE5;&#xED;&#xF2;_300"></linearGradient><linearGradient id="&#xC1;&#xE5;&#xE7;&#xFB;&#xEC;&#xFF;&#xED;&#xED;&#xFB;&#xE9;_&#xE3;&#xF0;&#xE0;&#xE4;&#xE8;&#xE5;&#xED;&#xF2;_377-5" x1="-72.89" y1="163.21" x2="66.04" y2="163.21" xlink:href="#&#xC1;&#xE5;&#xE7;&#xFB;&#xEC;&#xFF;&#xED;&#xED;&#xFB;&#xE9;_&#xE3;&#xF0;&#xE0;&#xE4;&#xE8;&#xE5;&#xED;&#xF2;_377"></linearGradient><linearGradient id="&#xC1;&#xE5;&#xE7;&#xFB;&#xEC;&#xFF;&#xED;&#xED;&#xFB;&#xE9;_&#xE3;&#xF0;&#xE0;&#xE4;&#xE8;&#xE5;&#xED;&#xF2;_300-5" x1="139.06" y1="1055.59" x2="252.51" y2="1055.59" gradientTransform="matrix(0.87, 0.5, -0.87, 0.5, 994.49, -485.21)" xlink:href="#&#xC1;&#xE5;&#xE7;&#xFB;&#xEC;&#xFF;&#xED;&#xED;&#xFB;&#xE9;_&#xE3;&#xF0;&#xE0;&#xE4;&#xE8;&#xE5;&#xED;&#xF2;_300"></linearGradient><linearGradient id="&#xC1;&#xE5;&#xE7;&#xFB;&#xEC;&#xFF;&#xED;&#xED;&#xFB;&#xE9;_&#xE3;&#xF0;&#xE0;&#xE4;&#xE8;&#xE5;&#xED;&#xF2;_300-6" x1="16.75" y1="386.84" x2="1182.77" y2="386.84" gradientTransform="matrix(1, 0, 0, 1, 0, 0)" xlink:href="#&#xC1;&#xE5;&#xE7;&#xFB;&#xEC;&#xFF;&#xED;&#xED;&#xFB;&#xE9;_&#xE3;&#xF0;&#xE0;&#xE4;&#xE8;&#xE5;&#xED;&#xF2;_300"></linearGradient><linearGradient id="&#xC1;&#xE5;&#xE7;&#xFB;&#xEC;&#xFF;&#xED;&#xED;&#xFB;&#xE9;_&#xE3;&#xF0;&#xE0;&#xE4;&#xE8;&#xE5;&#xED;&#xF2;_300-7" x1="-1058" y1="1152.2" x2="-738.78" y2="1152.2" gradientTransform="matrix(0.87, 0.5, -1, 0.58, 2511.12, 151.98)" xlink:href="#&#xC1;&#xE5;&#xE7;&#xFB;&#xEC;&#xFF;&#xED;&#xED;&#xFB;&#xE9;_&#xE3;&#xF0;&#xE0;&#xE4;&#xE8;&#xE5;&#xED;&#xF2;_300"></linearGradient><radialGradient id="&#xC1;&#xE5;&#xE7;&#xFB;&#xEC;&#xFF;&#xED;&#xED;&#xFB;&#xE9;_&#xE3;&#xF0;&#xE0;&#xE4;&#xE8;&#xE5;&#xED;&#xF2;_478" cx="-1841.37" cy="-1340.01" r="634.8" gradientTransform="matrix(0.84, 0.49, -1.07, 0.62, 258.23, 1912.27)" gradientUnits="userSpaceOnUse"><stop offset="0.01" stop-color="#2c35a2"></stop><stop offset="0.16" stop-color="#252c88"></stop><stop offset="0.4" stop-color="#1b2167"></stop><stop offset="0.62" stop-color="#15194f"></stop><stop offset="0.83" stop-color="#101540"></stop><stop offset="1" stop-color="#0f133b"></stop></radialGradient><linearGradient id="&#xC1;&#xE5;&#xE7;&#xFB;&#xEC;&#xFF;&#xED;&#xED;&#xFB;&#xE9;_&#xE3;&#xF0;&#xE0;&#xE4;&#xE8;&#xE5;&#xED;&#xF2;_377-6" x1="123.2" y1="368.97" x2="702.25" y2="368.97" gradientTransform="matrix(1, 0, 0, 1, 0, 0)" xlink:href="#&#xC1;&#xE5;&#xE7;&#xFB;&#xEC;&#xFF;&#xED;&#xED;&#xFB;&#xE9;_&#xE3;&#xF0;&#xE0;&#xE4;&#xE8;&#xE5;&#xED;&#xF2;_377"></linearGradient><radialGradient id="&#xC1;&#xE5;&#xE7;&#xFB;&#xEC;&#xFF;&#xED;&#xED;&#xFB;&#xE9;_&#xE3;&#xF0;&#xE0;&#xE4;&#xE8;&#xE5;&#xED;&#xF2;_478-2" cx="-909.4" cy="677.63" r="30.19" gradientTransform="matrix(0.87, 0.5, -0.87, 0.5, 2203.95, 329.05)" xlink:href="#&#xC1;&#xE5;&#xE7;&#xFB;&#xEC;&#xFF;&#xED;&#xED;&#xFB;&#xE9;_&#xE3;&#xF0;&#xE0;&#xE4;&#xE8;&#xE5;&#xED;&#xF2;_478"></radialGradient><linearGradient id="&#xC1;&#xE5;&#xE7;&#xFB;&#xEC;&#xFF;&#xED;&#xED;&#xFB;&#xE9;_&#xE3;&#xF0;&#xE0;&#xE4;&#xE8;&#xE5;&#xED;&#xF2;_102" x1="878.26" y1="457.22" x2="969.88" y2="457.22" xlink:href="#&#xC1;&#xE5;&#xE7;&#xFB;&#xEC;&#xFF;&#xED;&#xED;&#xFB;&#xE9;_&#xE3;&#xF0;&#xE0;&#xE4;&#xE8;&#xE5;&#xED;&#xF2;_388"></linearGradient><linearGradient id="&#xC1;&#xE5;&#xE7;&#xFB;&#xEC;&#xFF;&#xED;&#xED;&#xFB;&#xE9;_&#xE3;&#xF0;&#xE0;&#xE4;&#xE8;&#xE5;&#xED;&#xF2;_377-7" x1="878.85" y1="441.44" x2="971.52" y2="441.44" gradientTransform="matrix(1, 0, 0, 1, 0, 0)" xlink:href="#&#xC1;&#xE5;&#xE7;&#xFB;&#xEC;&#xFF;&#xED;&#xED;&#xFB;&#xE9;_&#xE3;&#xF0;&#xE0;&#xE4;&#xE8;&#xE5;&#xED;&#xF2;_377"></linearGradient><linearGradient id="&#xC1;&#xE5;&#xE7;&#xFB;&#xEC;&#xFF;&#xED;&#xED;&#xFB;&#xE9;_&#xE3;&#xF0;&#xE0;&#xE4;&#xE8;&#xE5;&#xED;&#xF2;_388-2" x1="878.85" y1="451.72" x2="971.52" y2="451.72" xlink:href="#&#xC1;&#xE5;&#xE7;&#xFB;&#xEC;&#xFF;&#xED;&#xED;&#xFB;&#xE9;_&#xE3;&#xF0;&#xE0;&#xE4;&#xE8;&#xE5;&#xED;&#xF2;_388"></linearGradient><linearGradient id="&#xC1;&#xE5;&#xE7;&#xFB;&#xEC;&#xFF;&#xED;&#xED;&#xFB;&#xE9;_&#xE3;&#xF0;&#xE0;&#xE4;&#xE8;&#xE5;&#xED;&#xF2;_300-8" x1="1118.32" y1="735.47" x2="1161.97" y2="697.66" gradientTransform="matrix(0.87, 0.5, -1, 0.58, 652.48, -558.78)" xlink:href="#&#xC1;&#xE5;&#xE7;&#xFB;&#xEC;&#xFF;&#xED;&#xED;&#xFB;&#xE9;_&#xE3;&#xF0;&#xE0;&#xE4;&#xE8;&#xE5;&#xED;&#xF2;_300"></linearGradient><linearGradient id="&#xC1;&#xE5;&#xE7;&#xFB;&#xEC;&#xFF;&#xED;&#xED;&#xFB;&#xE9;_&#xE3;&#xF0;&#xE0;&#xE4;&#xE8;&#xE5;&#xED;&#xF2;_102-2" x1="766.4" y1="523.47" x2="858.03" y2="523.47" xlink:href="#&#xC1;&#xE5;&#xE7;&#xFB;&#xEC;&#xFF;&#xED;&#xED;&#xFB;&#xE9;_&#xE3;&#xF0;&#xE0;&#xE4;&#xE8;&#xE5;&#xED;&#xF2;_388"></linearGradient><linearGradient id="&#xC1;&#xE5;&#xE7;&#xFB;&#xEC;&#xFF;&#xED;&#xED;&#xFB;&#xE9;_&#xE3;&#xF0;&#xE0;&#xE4;&#xE8;&#xE5;&#xED;&#xF2;_377-8" x1="766.99" y1="507.69" x2="859.67" y2="507.69" gradientTransform="matrix(1, 0, 0, 1, 0, 0)" xlink:href="#&#xC1;&#xE5;&#xE7;&#xFB;&#xEC;&#xFF;&#xED;&#xED;&#xFB;&#xE9;_&#xE3;&#xF0;&#xE0;&#xE4;&#xE8;&#xE5;&#xED;&#xF2;_377"></linearGradient><linearGradient id="&#xC1;&#xE5;&#xE7;&#xFB;&#xEC;&#xFF;&#xED;&#xED;&#xFB;&#xE9;_&#xE3;&#xF0;&#xE0;&#xE4;&#xE8;&#xE5;&#xED;&#xF2;_388-3" x1="766.99" y1="517.97" x2="859.67" y2="517.97" xlink:href="#&#xC1;&#xE5;&#xE7;&#xFB;&#xEC;&#xFF;&#xED;&#xED;&#xFB;&#xE9;_&#xE3;&#xF0;&#xE0;&#xE4;&#xE8;&#xE5;&#xED;&#xF2;_388"></linearGradient><linearGradient id="&#xC1;&#xE5;&#xE7;&#xFB;&#xEC;&#xFF;&#xED;&#xED;&#xFB;&#xE9;_&#xE3;&#xF0;&#xE0;&#xE4;&#xE8;&#xE5;&#xED;&#xF2;_300-9" x1="1119.98" y1="848.76" x2="1163.63" y2="810.96" gradientTransform="matrix(0.87, 0.5, -1, 0.58, 652.48, -558.78)" xlink:href="#&#xC1;&#xE5;&#xE7;&#xFB;&#xEC;&#xFF;&#xED;&#xED;&#xFB;&#xE9;_&#xE3;&#xF0;&#xE0;&#xE4;&#xE8;&#xE5;&#xED;&#xF2;_300"></linearGradient><linearGradient id="&#xC1;&#xE5;&#xE7;&#xFB;&#xEC;&#xFF;&#xED;&#xED;&#xFB;&#xE9;_&#xE3;&#xF0;&#xE0;&#xE4;&#xE8;&#xE5;&#xED;&#xF2;_102-3" x1="654.55" y1="589.72" x2="746.18" y2="589.72" xlink:href="#&#xC1;&#xE5;&#xE7;&#xFB;&#xEC;&#xFF;&#xED;&#xED;&#xFB;&#xE9;_&#xE3;&#xF0;&#xE0;&#xE4;&#xE8;&#xE5;&#xED;&#xF2;_388"></linearGradient><linearGradient id="&#xC1;&#xE5;&#xE7;&#xFB;&#xEC;&#xFF;&#xED;&#xED;&#xFB;&#xE9;_&#xE3;&#xF0;&#xE0;&#xE4;&#xE8;&#xE5;&#xED;&#xF2;_377-9" x1="655.14" y1="573.94" x2="747.82" y2="573.94" gradientTransform="matrix(1, 0, 0, 1, 0, 0)" xlink:href="#&#xC1;&#xE5;&#xE7;&#xFB;&#xEC;&#xFF;&#xED;&#xED;&#xFB;&#xE9;_&#xE3;&#xF0;&#xE0;&#xE4;&#xE8;&#xE5;&#xED;&#xF2;_377"></linearGradient><linearGradient id="&#xC1;&#xE5;&#xE7;&#xFB;&#xEC;&#xFF;&#xED;&#xED;&#xFB;&#xE9;_&#xE3;&#xF0;&#xE0;&#xE4;&#xE8;&#xE5;&#xED;&#xF2;_388-4" x1="655.14" y1="584.21" x2="747.82" y2="584.21" xlink:href="#&#xC1;&#xE5;&#xE7;&#xFB;&#xEC;&#xFF;&#xED;&#xED;&#xFB;&#xE9;_&#xE3;&#xF0;&#xE0;&#xE4;&#xE8;&#xE5;&#xED;&#xF2;_388"></linearGradient><linearGradient id="&#xC1;&#xE5;&#xE7;&#xFB;&#xEC;&#xFF;&#xED;&#xED;&#xFB;&#xE9;_&#xE3;&#xF0;&#xE0;&#xE4;&#xE8;&#xE5;&#xED;&#xF2;_300-10" x1="1121.64" y1="962.05" x2="1165.3" y2="924.25" gradientTransform="matrix(0.87, 0.5, -1, 0.58, 652.48, -558.78)" xlink:href="#&#xC1;&#xE5;&#xE7;&#xFB;&#xEC;&#xFF;&#xED;&#xED;&#xFB;&#xE9;_&#xE3;&#xF0;&#xE0;&#xE4;&#xE8;&#xE5;&#xED;&#xF2;_300"></linearGradient></defs><path class="cls-1" d="M249.68,430.18a131.51,131.51,0,0,1-36.9-5.18c-23.93-7-40.29-20.24-44.9-36.23-3.23-11.2-.2-22.82,8.55-32.73h0l.94-1.06c21-23.76,69.11-33,109.6-21.13,23.92,7,40.28,20.24,44.89,36.22,3.23,11.2.2,22.83-8.55,32.74l-.94,1.06C307.58,420.62,279.28,430.18,249.68,430.18Zm-64.94-66.8c-6.23,7.07-8.38,14.78-6.21,22.32,3.49,12.09,17.46,22.8,37.38,28.66C252,425,296,417,314.06,396.52l.94-1.06c6.23-7.07,8.38-14.79,6.21-22.33-3.49-12.08-17.46-22.79-37.37-28.65-36.08-10.62-80.11-2.62-98.16,17.83Z" transform="translate(-166.62)"></path><path class="cls-2" d="M249.23,425.26a125.23,125.23,0,0,1-35.1-4.88c-22.31-6.57-37.48-18.57-41.63-32.94-2.8-9.7-.19-19.46,7.54-28.22l.94-1.06c19.5-22.1,66.44-30.93,104.63-19.7C307.92,345,323.09,357,327.24,371.4c2.8,9.7.19,19.45-7.54,28.21l-.94,1.07C305,416.27,277.59,425.26,249.23,425.26Zm-68.09-65.07c-7.39,8.37-9.88,17.65-7.23,26.84,3.94,13.68,19.13,25.62,40.64,32,37.7,11.09,84,2.44,103.11-19.27l.94-1.07c7.39-8.36,9.89-17.64,7.23-26.84-3.94-13.68-19.13-25.61-40.64-31.94-37.7-11.09-83.95-2.45-103.11,19.27Z" transform="translate(-166.62)"></path><path class="cls-3" d="M249.9,416.49c-17.86,0-35.71-3.92-49.31-11.77-13.24-7.65-20.54-17.84-20.54-28.69s7.3-21,20.54-28.69c27.19-15.7,71.43-15.7,98.62,0,13.25,7.64,20.54,17.83,20.54,28.69s-7.29,21-20.53,28.69C285.62,412.57,267.76,416.49,249.9,416.49Zm0-80.18c-17.72,0-35.44,3.9-48.93,11.69-13,7.5-20.16,17.46-20.16,28s7.16,20.52,20.16,28c27,15.58,70.88,15.59,97.86,0,13-7.51,20.16-17.46,20.16-28s-7.16-20.53-20.16-28C285.34,340.21,267.62,336.31,249.9,336.31Z" transform="translate(-166.62)"></path><ellipse class="cls-4" cx="83.28" cy="376.03" rx="58.66" ry="33.87"></ellipse><path class="cls-5" d="M319.37,358.62v-22.7h-12.3A56.45,56.45,0,0,0,299,330.3c-27.13-15.67-71.11-15.67-98.24,0a56.45,56.45,0,0,0-8.05,5.62h-12.3v22.74h0c0,10.26,6.79,20.53,20.35,28.36,27.13,15.66,71.12,15.66,98.24,0C312.6,379.18,319.38,368.9,319.37,358.62Z" transform="translate(-166.62)"></path><path class="cls-6" d="M181.07,358.07V335.92h-.64v22.74c0,9.19,5.48,18.36,16.35,25.8C186.32,376.72,181.07,367.4,181.07,358.07Z" transform="translate(-166.62)"></path><path class="cls-2" d="M318.27,335.92v22c0,10.28-6.76,20.56-20.34,28.4-27.13,15.66-71.12,15.66-98.24,0-1.38-.8-2.65-1.64-3.89-2.48,1.55,1.1,3.2,2.18,5,3.21,27.13,15.66,71.12,15.66,98.24,0,13.58-7.84,20.36-18.12,20.35-28.4v-22.7Z" transform="translate(-166.62)"></path><ellipse class="cls-7" cx="83.28" cy="335.92" rx="69.47" ry="40.11"></ellipse><path class="cls-6" d="M202.66,308c13.78-8,31.78-12,49.84-12.09-18.64-.4-37.5,3.47-51.72,11.68-21.14,12.2-26,30.54-13.93,45.11C176.47,337.76,181.73,320.06,202.66,308Z" transform="translate(-166.62)"></path><path class="cls-2" d="M299,307.56a86,86,0,0,0-24.57-9.13A84.1,84.1,0,0,1,296.59,307c27.12,15.67,27.13,41.06,0,56.72-19.92,11.5-48.92,14.53-73.67,9.13,25.26,6.15,55.53,3.3,76.1-8.58C326.15,348.62,326.15,323.22,299,307.56Z" transform="translate(-166.62)"></path><ellipse class="cls-8" cx="82.95" cy="335.92" rx="44.39" ry="25.63"></ellipse><path class="cls-9" d="M218.17,331.53c17.34-10,45.45-10,62.79,0,5.61,3.24,9.37,7.14,11.35,11.26,4.14-8.61.37-18.22-11.35-25-17.34-10-45.45-10-62.79,0-11.72,6.77-15.49,16.38-11.35,25C208.8,338.67,212.56,334.77,218.17,331.53Z" transform="translate(-166.62)"></path><path class="cls-10" d="M218.17,326.68c17.34-10,45.45-10,62.79,0,6.7,3.87,10.78,8.67,12.3,13.68,2.41-7.95-1.67-16.42-12.3-22.56-17.34-10-45.45-10-62.79,0-10.63,6.14-14.71,14.61-12.3,22.56C207.39,335.35,211.47,330.55,218.17,326.68Z" transform="translate(-166.62)"></path><path class="cls-11" d="M218.17,322.36c17.34-10,45.45-10,62.79,0,7.66,4.42,11.92,10.06,12.81,15.84,1.12-7.29-3.14-14.82-12.81-20.4-17.34-10-45.45-10-62.79,0-9.67,5.58-13.93,13.1-12.81,20.4C206.25,332.42,210.51,326.78,218.17,322.36Z" transform="translate(-166.62)"></path><path class="cls-2" d="M285.85,305a4.4,4.4,0,0,0-4.1.56c-.86.81-.42,1.87,1,2.36a4.38,4.38,0,0,0,4.09-.56C287.69,306.5,287.25,305.44,285.85,305Z" transform="translate(-166.62)"></path><path class="cls-12" d="M295.66,309.7a4.6,4.6,0,0,0-4.14.09c-1.1.69-1,1.76.15,2.39a4.54,4.54,0,0,0,4.14-.09C296.91,311.41,296.84,310.34,295.66,309.7Z" transform="translate(-166.62)"></path><path class="cls-13" d="M303.7,315.45a4.51,4.51,0,0,0-4.09-.38c-1.31.55-1.6,1.61-.66,2.36a4.45,4.45,0,0,0,4.09.38C304.35,317.27,304.65,316.21,303.7,315.45Z" transform="translate(-166.62)"></path><path class="cls-14" d="M309.65,322a4.06,4.06,0,0,0-3.89-.83c-1.47.39-2.11,1.39-1.44,2.24a4,4,0,0,0,3.88.83C309.67,323.85,310.32,322.85,309.65,322Z" transform="translate(-166.62)"></path><path class="cls-15" d="M313.27,329.09c-.38-.91-2-1.47-3.53-1.25s-2.54,1.12-2.17,2,1.95,1.47,3.53,1.25S313.64,330,313.27,329.09Z" transform="translate(-166.62)"></path><path class="cls-16" d="M314.13,337.25c.71-.83.1-1.85-1.35-2.26a4.1,4.1,0,0,0-3.91.78c-.71.84-.11,1.85,1.34,2.26A4.11,4.11,0,0,0,314.13,337.25Z" transform="translate(-166.62)"></path><path class="cls-17" d="M319.37,309.76v-22.7h-12.3a56.45,56.45,0,0,0-8.05-5.62c-27.13-15.67-71.11-15.67-98.24,0a56.45,56.45,0,0,0-8.05,5.62h-12.3V309.8h0c0,10.26,6.79,20.52,20.35,28.36,27.13,15.66,71.12,15.66,98.24,0C312.6,330.32,319.38,320,319.37,309.76Z" transform="translate(-166.62)"></path><path class="cls-6" d="M181.07,309.21V287.06h-.64V309.8c0,9.19,5.48,18.36,16.35,25.8C186.32,327.86,181.07,318.54,181.07,309.21Z" transform="translate(-166.62)"></path><path class="cls-2" d="M318.27,287.06v22c0,10.28-6.76,20.56-20.34,28.4-27.13,15.66-71.12,15.66-98.24,0-1.38-.8-2.65-1.64-3.89-2.48,1.55,1.1,3.2,2.18,5,3.21,27.13,15.66,71.12,15.66,98.24,0,13.58-7.84,20.36-18.12,20.35-28.4v-22.7Z" transform="translate(-166.62)"></path><ellipse class="cls-18" cx="83.28" cy="287.06" rx="69.47" ry="40.11"></ellipse><path class="cls-6" d="M202.66,259.11c13.78-8,31.78-12,49.84-12.09-18.64-.4-37.5,3.46-51.72,11.68-21.14,12.2-26,30.53-13.93,45.11C176.47,288.89,181.73,271.2,202.66,259.11Z" transform="translate(-166.62)"></path><path class="cls-2" d="M299,258.7a86,86,0,0,0-24.57-9.13,84.1,84.1,0,0,1,22.14,8.58c27.12,15.66,27.13,41.06,0,56.72-19.92,11.5-48.92,14.52-73.67,9.13,25.26,6.15,55.53,3.3,76.1-8.58C326.15,299.76,326.15,274.36,299,258.7Z" transform="translate(-166.62)"></path><path class="cls-8" d="M281,305.18c-17.34,10-45.45,10-62.79,0s-17.33-26.24,0-36.25,45.45-10,62.79,0S298.29,295.17,281,305.18Z" transform="translate(-166.62)"></path><path class="cls-9" d="M218.17,282.67c17.34-10,45.45-10,62.79,0,5.61,3.24,9.37,7.14,11.35,11.26,4.14-8.61.37-18.23-11.35-25-17.34-10-45.45-10-62.79,0-11.72,6.77-15.49,16.38-11.35,25C208.8,289.81,212.56,285.91,218.17,282.67Z" transform="translate(-166.62)"></path><path class="cls-10" d="M218.17,277.82c17.34-10,45.45-10,62.79,0,6.7,3.87,10.78,8.67,12.3,13.68,2.41-7.95-1.67-16.42-12.3-22.57-17.34-10-45.45-10-62.79,0-10.63,6.14-14.71,14.62-12.3,22.57C207.39,286.49,211.47,281.69,218.17,277.82Z" transform="translate(-166.62)"></path><path class="cls-11" d="M218.17,273.5c17.34-10,45.45-10,62.79,0,7.66,4.42,11.92,10.06,12.81,15.84,1.12-7.3-3.14-14.82-12.81-20.41-17.34-10-45.45-10-62.79,0-9.67,5.59-13.93,13.11-12.81,20.41C206.25,283.56,210.51,277.92,218.17,273.5Z" transform="translate(-166.62)"></path><path class="cls-2" d="M285.85,256.08a4.43,4.43,0,0,0-4.1.57c-.86.81-.42,1.86,1,2.36a4.38,4.38,0,0,0,4.09-.56C287.69,257.64,287.25,256.58,285.85,256.08Z" transform="translate(-166.62)"></path><path class="cls-12" d="M295.66,260.84a4.6,4.6,0,0,0-4.14.09c-1.1.69-1,1.76.15,2.39a4.54,4.54,0,0,0,4.14-.09C296.91,262.55,296.84,261.48,295.66,260.84Z" transform="translate(-166.62)"></path><path class="cls-13" d="M303.7,266.59a4.51,4.51,0,0,0-4.09-.38c-1.31.55-1.6,1.61-.66,2.36A4.45,4.45,0,0,0,303,269C304.35,268.41,304.65,267.35,303.7,266.59Z" transform="translate(-166.62)"></path><path class="cls-14" d="M309.65,273.14a4.06,4.06,0,0,0-3.89-.83c-1.47.38-2.11,1.39-1.44,2.24a4,4,0,0,0,3.88.83C309.67,275,310.32,274,309.65,273.14Z" transform="translate(-166.62)"></path><path class="cls-15" d="M313.27,280.23c-.38-.91-2-1.47-3.53-1.26s-2.54,1.13-2.17,2,1.95,1.47,3.53,1.25S313.64,281.14,313.27,280.23Z" transform="translate(-166.62)"></path><path class="cls-16" d="M314.13,288.39c.71-.84.1-1.85-1.35-2.26a4.1,4.1,0,0,0-3.91.78c-.71.84-.11,1.85,1.34,2.26A4.11,4.11,0,0,0,314.13,288.39Z" transform="translate(-166.62)"></path><path class="cls-19" d="M319.37,258.31l-21.51-.25c-26.16-14.43-67-14.79-93.91-1.07l-23.55-.27V286h.08c-.5,10.63,6.25,21.35,20.3,29.46,27.13,15.66,71.12,15.66,98.24,0,14.05-8.11,20.81-18.83,20.3-29.46h.05Z" transform="translate(-166.62)"></path><path class="cls-20" d="M319.37,260.9V238.2h-12.3a55.65,55.65,0,0,0-8.05-5.62c-27.13-15.67-71.11-15.67-98.24,0a56.48,56.48,0,0,0-8.05,5.63h-12.3v22.74h0c0,10.26,6.79,20.52,20.35,28.36C227.91,305,271.9,305,299,289.3,312.6,281.46,319.38,271.18,319.37,260.9Z" transform="translate(-166.62)"></path><path class="cls-6" d="M181.07,260.35V238.2h-.64v22.74c0,9.18,5.48,18.36,16.35,25.8C186.32,279,181.07,269.68,181.07,260.35Z" transform="translate(-166.62)"></path><path class="cls-2" d="M318.27,238.2v22c0,10.28-6.76,20.55-20.34,28.4-27.13,15.66-71.12,15.66-98.24,0-1.38-.79-2.65-1.63-3.89-2.47,1.55,1.1,3.2,2.18,5,3.21C227.91,305,271.9,305,299,289.3c13.58-7.84,20.36-18.12,20.35-28.4V238.2Z" transform="translate(-166.62)"></path><ellipse class="cls-21" cx="83.28" cy="238.2" rx="69.47" ry="40.11"></ellipse><path class="cls-6" d="M202.66,210.25c13.78-7.95,31.78-12,49.84-12.09-18.64-.4-37.5,3.46-51.72,11.68-21.14,12.2-26,30.53-13.93,45.11C176.47,240,181.73,222.33,202.66,210.25Z" transform="translate(-166.62)"></path><path class="cls-2" d="M299,209.84a86,86,0,0,0-24.57-9.13,84.1,84.1,0,0,1,22.14,8.58c27.12,15.66,27.13,41.06,0,56.72-19.92,11.5-48.92,14.52-73.67,9.13,25.26,6.15,55.53,3.3,76.1-8.58C326.15,250.9,326.15,225.5,299,209.84Z" transform="translate(-166.62)"></path><ellipse class="cls-8" cx="82.95" cy="238.2" rx="44.39" ry="25.63"></ellipse><path class="cls-9" d="M218.17,233.81c17.34-10,45.45-10,62.79,0,5.61,3.24,9.37,7.14,11.35,11.26,4.14-8.61.37-18.23-11.35-25-17.34-10-45.45-10-62.79,0-11.72,6.77-15.49,16.38-11.35,25C208.8,240.94,212.56,237.05,218.17,233.81Z" transform="translate(-166.62)"></path><path class="cls-10" d="M218.17,229c17.34-10,45.45-10,62.79,0,6.7,3.87,10.78,8.67,12.3,13.68,2.41-7.95-1.67-16.43-12.3-22.57-17.34-10-45.45-10-62.79,0-10.63,6.14-14.71,14.62-12.3,22.57C207.39,237.63,211.47,232.83,218.17,229Z" transform="translate(-166.62)"></path><path class="cls-11" d="M218.17,224.64c17.34-10,45.45-10,62.79,0,7.66,4.42,11.92,10.06,12.81,15.84,1.12-7.3-3.14-14.82-12.81-20.41-17.34-10-45.45-10-62.79,0-9.67,5.59-13.93,13.11-12.81,20.41C206.25,234.7,210.51,229.06,218.17,224.64Z" transform="translate(-166.62)"></path><path class="cls-2" d="M285.85,207.22a4.43,4.43,0,0,0-4.1.57c-.86.8-.42,1.86,1,2.36a4.38,4.38,0,0,0,4.09-.56C287.69,208.78,287.25,207.72,285.85,207.22Z" transform="translate(-166.62)"></path><path class="cls-12" d="M295.66,212a4.6,4.6,0,0,0-4.14.09c-1.1.68-1,1.75.15,2.39a4.6,4.6,0,0,0,4.14-.09C296.91,213.69,296.84,212.62,295.66,212Z" transform="translate(-166.62)"></path><path class="cls-13" d="M303.7,217.73a4.48,4.48,0,0,0-4.09-.38c-1.31.55-1.6,1.61-.66,2.36a4.45,4.45,0,0,0,4.09.38C304.35,219.54,304.65,218.49,303.7,217.73Z" transform="translate(-166.62)"></path><path class="cls-14" d="M309.65,224.28a4.08,4.08,0,0,0-3.89-.84c-1.47.39-2.11,1.4-1.44,2.25a4.06,4.06,0,0,0,3.88.83C309.67,226.13,310.32,225.13,309.65,224.28Z" transform="translate(-166.62)"></path><path class="cls-15" d="M313.27,231.37c-.38-.91-2-1.47-3.53-1.26s-2.54,1.13-2.17,2,1.95,1.47,3.53,1.25S313.64,232.27,313.27,231.37Z" transform="translate(-166.62)"></path><path class="cls-16" d="M314.13,239.53c.71-.84.1-1.85-1.35-2.26a4.1,4.1,0,0,0-3.91.78c-.71.84-.11,1.85,1.34,2.26A4.11,4.11,0,0,0,314.13,239.53Z" transform="translate(-166.62)"></path><path class="cls-22" d="M319.37,212v-22.7h-12.3a56.48,56.48,0,0,0-8.05-5.63c-27.13-15.66-71.11-15.66-98.24,0a56.48,56.48,0,0,0-8.05,5.63h-12.3v22.73h0c0,10.27,6.79,20.53,20.35,28.36,27.13,15.67,71.12,15.67,98.24,0C312.6,232.59,319.38,222.31,319.37,212Z" transform="translate(-166.62)"></path><path class="cls-6" d="M181.07,211.48V189.34h-.64v22.73c0,9.19,5.48,18.37,16.35,25.81C186.32,230.14,181.07,220.82,181.07,211.48Z" transform="translate(-166.62)"></path><path class="cls-2" d="M318.27,189.34v22c0,10.27-6.76,20.55-20.34,28.39-27.13,15.67-71.12,15.67-98.24,0-1.38-.79-2.65-1.63-3.89-2.48a58.45,58.45,0,0,0,5,3.21c27.13,15.67,71.12,15.67,98.24,0,13.58-7.84,20.36-18.12,20.35-28.39v-22.7Z" transform="translate(-166.62)"></path><ellipse class="cls-23" cx="83.28" cy="189.34" rx="69.47" ry="40.11"></ellipse><path class="cls-6" d="M202.66,161.39c13.78-8,31.78-12,49.84-12.09-18.64-.4-37.5,3.46-51.72,11.68-21.14,12.2-26,30.53-13.93,45.1C176.47,191.17,181.73,173.47,202.66,161.39Z" transform="translate(-166.62)"></path><path class="cls-2" d="M299,161a86,86,0,0,0-24.57-9.14,84.46,84.46,0,0,1,22.14,8.59c27.12,15.66,27.13,41.06,0,56.72-19.92,11.5-48.92,14.52-73.67,9.13,25.26,6.14,55.53,3.3,76.1-8.58C326.15,202,326.15,176.64,299,161Z" transform="translate(-166.62)"></path><path class="cls-8" d="M281,207.46c-17.34,10-45.45,10-62.79,0s-17.33-26.24,0-36.25,45.45-10,62.79,0S298.29,197.45,281,207.46Z" transform="translate(-166.62)"></path><path class="cls-9" d="M218.17,185c17.34-10,45.45-10,62.79,0,5.61,3.24,9.37,7.13,11.35,11.26,4.14-8.62.37-18.23-11.35-25-17.34-10-45.45-10-62.79,0-11.72,6.77-15.49,16.38-11.35,25C208.8,192.08,212.56,188.19,218.17,185Z" transform="translate(-166.62)"></path><path class="cls-10" d="M218.17,180.1c17.34-10,45.45-10,62.79,0,6.7,3.87,10.78,8.67,12.3,13.68,2.41-7.95-1.67-16.43-12.3-22.57-17.34-10-45.45-10-62.79,0-10.63,6.14-14.71,14.62-12.3,22.57C207.39,188.77,211.47,184,218.17,180.1Z" transform="translate(-166.62)"></path><path class="cls-11" d="M218.17,175.78c17.34-10,45.45-10,62.79,0,7.66,4.42,11.92,10.06,12.81,15.84,1.12-7.3-3.14-14.82-12.81-20.41-17.34-10-45.45-10-62.79,0-9.67,5.59-13.93,13.11-12.81,20.41C206.25,185.84,210.51,180.2,218.17,175.78Z" transform="translate(-166.62)"></path><path class="cls-2" d="M285.85,158.36a4.43,4.43,0,0,0-4.1.56c-.86.81-.42,1.87,1,2.37a4.38,4.38,0,0,0,4.09-.56C287.69,159.92,287.25,158.86,285.85,158.36Z" transform="translate(-166.62)"></path><path class="cls-12" d="M295.66,163.12a4.54,4.54,0,0,0-4.14.09c-1.1.68-1,1.75.15,2.39a4.6,4.6,0,0,0,4.14-.09C296.91,164.83,296.84,163.76,295.66,163.12Z" transform="translate(-166.62)"></path><path class="cls-13" d="M303.7,168.87a4.45,4.45,0,0,0-4.09-.38c-1.31.55-1.6,1.6-.66,2.36a4.45,4.45,0,0,0,4.09.38C304.35,170.68,304.65,169.63,303.7,168.87Z" transform="translate(-166.62)"></path><path class="cls-14" d="M309.65,175.42a4.06,4.06,0,0,0-3.89-.84c-1.47.39-2.11,1.4-1.44,2.24a4,4,0,0,0,3.88.84C309.67,177.27,310.32,176.26,309.65,175.42Z" transform="translate(-166.62)"></path><path class="cls-15" d="M313.27,182.51c-.38-.91-2-1.47-3.53-1.26s-2.54,1.13-2.17,2,1.95,1.47,3.53,1.25S313.64,183.41,313.27,182.51Z" transform="translate(-166.62)"></path><path class="cls-16" d="M314.13,190.67c.71-.84.1-1.85-1.35-2.26a4.1,4.1,0,0,0-3.91.78c-.71.84-.11,1.85,1.34,2.26A4.11,4.11,0,0,0,314.13,190.67Z" transform="translate(-166.62)"></path><path class="cls-19" d="M319.37,160.58l-21.51-.24c-26.16-14.43-67-14.79-93.91-1.07L180.4,159v29.24h.08c-.5,10.63,6.25,21.34,20.3,29.46,27.13,15.66,71.12,15.66,98.24,0,14.05-8.11,20.81-18.83,20.3-29.46h.05Z" transform="translate(-166.62)"></path><path class="cls-24" d="M319.37,163.18V140.47h-12.3a57.27,57.27,0,0,0-8.05-5.62c-27.13-15.66-71.11-15.66-98.24,0a57.27,57.27,0,0,0-8.05,5.62h-12.3v22.74h0c0,10.27,6.79,20.53,20.35,28.36,27.13,15.67,71.12,15.67,98.24,0C312.6,183.73,319.38,173.45,319.37,163.18Z" transform="translate(-166.62)"></path><path class="cls-6" d="M181.07,162.62V140.47h-.64v22.74c0,9.19,5.48,18.37,16.35,25.81C186.32,181.28,181.07,172,181.07,162.62Z" transform="translate(-166.62)"></path><path class="cls-2" d="M318.27,140.47v22c0,10.27-6.76,20.55-20.34,28.39-27.13,15.67-71.12,15.67-98.24,0-1.38-.79-2.65-1.63-3.89-2.48,1.55,1.11,3.2,2.18,5,3.21,27.13,15.67,71.12,15.67,98.24,0,13.58-7.84,20.36-18.12,20.35-28.39V140.47Z" transform="translate(-166.62)"></path><path class="cls-25" d="M299,168.84c-27.12,15.66-71.11,15.66-98.24,0s-27.13-41.05,0-56.72,71.11-15.66,98.24,0S326.15,153.17,299,168.84Z" transform="translate(-166.62)"></path><path class="cls-6" d="M202.66,112.53c13.78-8,31.78-12,49.84-12.09-18.64-.4-37.5,3.46-51.72,11.67-21.14,12.21-26,30.54-13.93,45.11C176.47,142.31,181.73,124.61,202.66,112.53Z" transform="translate(-166.62)"></path><path class="cls-2" d="M299,112.11A86,86,0,0,0,274.45,103a84.46,84.46,0,0,1,22.14,8.59c27.12,15.66,27.13,41.05,0,56.72-19.92,11.5-48.92,14.52-73.67,9.13,25.26,6.14,55.53,3.3,76.1-8.58C326.15,153.17,326.15,127.78,299,112.11Z" transform="translate(-166.62)"></path><ellipse class="cls-8" cx="82.95" cy="140.47" rx="44.39" ry="25.63"></ellipse><path class="cls-9" d="M218.17,136.09c17.34-10,45.45-10,62.79,0,5.61,3.24,9.37,7.13,11.35,11.25,4.14-8.61.37-18.22-11.35-25-17.34-10-45.45-10-62.79,0-11.72,6.77-15.49,16.38-11.35,25C208.8,143.22,212.56,139.33,218.17,136.09Z" transform="translate(-166.62)"></path><path class="cls-10" d="M218.17,131.24c17.34-10,45.45-10,62.79,0,6.7,3.87,10.78,8.67,12.3,13.68,2.41-7.95-1.67-16.43-12.3-22.57-17.34-10-45.45-10-62.79,0-10.63,6.14-14.71,14.62-12.3,22.57C207.39,139.91,211.47,135.11,218.17,131.24Z" transform="translate(-166.62)"></path><path class="cls-11" d="M218.17,126.92c17.34-10,45.45-10,62.79,0,7.66,4.42,11.92,10.06,12.81,15.84,1.12-7.3-3.14-14.82-12.81-20.41-17.34-10-45.45-10-62.79,0-9.67,5.59-13.93,13.11-12.81,20.41C206.25,137,210.51,131.34,218.17,126.92Z" transform="translate(-166.62)"></path><path class="cls-2" d="M285.85,109.5a4.4,4.4,0,0,0-4.1.56c-.86.81-.42,1.87,1,2.37a4.38,4.38,0,0,0,4.09-.56C287.69,111.06,287.25,110,285.85,109.5Z" transform="translate(-166.62)"></path><path class="cls-12" d="M295.66,114.26a4.54,4.54,0,0,0-4.14.09c-1.1.68-1,1.75.15,2.39a4.6,4.6,0,0,0,4.14-.09C296.91,116,296.84,114.89,295.66,114.26Z" transform="translate(-166.62)"></path><path class="cls-13" d="M303.7,120a4.45,4.45,0,0,0-4.09-.38c-1.31.55-1.6,1.6-.66,2.36a4.45,4.45,0,0,0,4.09.38C304.35,121.82,304.65,120.77,303.7,120Z" transform="translate(-166.62)"></path><path class="cls-14" d="M309.65,126.55a4.08,4.08,0,0,0-3.89-.83c-1.47.39-2.11,1.39-1.44,2.24a4.06,4.06,0,0,0,3.88.84C309.67,128.41,310.32,127.4,309.65,126.55Z" transform="translate(-166.62)"></path><path class="cls-15" d="M313.27,133.64c-.38-.9-2-1.47-3.53-1.25s-2.54,1.13-2.17,2,1.95,1.47,3.53,1.25S313.64,134.55,313.27,133.64Z" transform="translate(-166.62)"></path><path class="cls-16" d="M314.13,141.81c.71-.84.1-1.85-1.35-2.26a4.1,4.1,0,0,0-3.91.78c-.71.83-.11,1.85,1.34,2.26A4.11,4.11,0,0,0,314.13,141.81Z" transform="translate(-166.62)"></path><circle class="cls-8" cx="84.28" cy="191.62" r="4.36"></circle><path class="cls-11" d="M250.89,194.35a4.37,4.37,0,0,1-4.28-3.55,4.47,4.47,0,0,0-.08.82,4.37,4.37,0,0,0,8.73,0,3.75,3.75,0,0,0-.09-.82A4.36,4.36,0,0,1,250.89,194.35Z" transform="translate(-166.62)"></path><circle class="cls-8" cx="84.28" cy="240.48" r="4.36"></circle><path class="cls-11" d="M250.89,243.21a4.37,4.37,0,0,1-4.28-3.55,4.47,4.47,0,0,0-.08.82,4.37,4.37,0,0,0,8.73,0,3.75,3.75,0,0,0-.09-.82A4.36,4.36,0,0,1,250.89,243.21Z" transform="translate(-166.62)"></path><circle class="cls-8" cx="84.28" cy="289.34" r="4.36"></circle><path class="cls-11" d="M250.89,292.07a4.37,4.37,0,0,1-4.28-3.55,4.47,4.47,0,0,0-.08.82,4.37,4.37,0,1,0,8.73,0,3.75,3.75,0,0,0-.09-.82A4.36,4.36,0,0,1,250.89,292.07Z" transform="translate(-166.62)"></path><circle class="cls-8" cx="84.28" cy="338.2" r="4.36"></circle><path class="cls-11" d="M250.89,340.93a4.37,4.37,0,0,1-4.28-3.54,4.28,4.28,0,0,0-.08.81,4.37,4.37,0,1,0,8.73,0,3.59,3.59,0,0,0-.09-.81A4.36,4.36,0,0,1,250.89,340.93Z" transform="translate(-166.62)"></path><circle class="cls-8" cx="84.28" cy="387.06" r="4.36"></circle><path class="cls-11" d="M250.89,389.79a4.37,4.37,0,0,1-4.28-3.54,4.28,4.28,0,0,0-.08.81,4.37,4.37,0,1,0,8.73,0,3.59,3.59,0,0,0-.09-.81A4.36,4.36,0,0,1,250.89,389.79Z" transform="translate(-166.62)"></path><path class="cls-1" d="M623.7,631.87a22.35,22.35,0,0,1-11-2.66l-110.58-64a3.16,3.16,0,0,1,3.16-5.47l110.59,64c4.21,2.43,11.35,2.43,15.57,0l349.7-200.49c1.43-.82,2.29-1.82,2.29-2.66s-.86-1.84-2.3-2.67L870.59,354a3.16,3.16,0,0,1,3.17-5.47l110.58,64c3.47,2,5.46,5,5.46,8.14s-2,6.14-5.46,8.14L634.64,629.21A22.26,22.26,0,0,1,623.7,631.87Z" transform="translate(-166.62)"></path><path class="cls-2" d="M623.7,629.33A19.8,19.8,0,0,1,614,627l-110.59-64,.63-1.09,110.59,64c5,2.88,13.12,2.88,18.1,0l349.7-200.48c2.29-1.33,3.56-3.05,3.56-4.86s-1.27-3.54-3.56-4.86l-110.59-64,.63-1.09,110.59,64c2.7,1.56,4.19,3.67,4.19,5.95s-1.49,4.39-4.19,5.95L633.38,627A19.8,19.8,0,0,1,623.7,629.33Z" transform="translate(-166.62)"></path><path class="cls-26" d="M886.91,359.74a2.84,2.84,0,1,1-1-3.88A2.84,2.84,0,0,1,886.91,359.74Z" transform="translate(-166.62)"></path><path class="cls-26" d="M901.64,368.25a2.84,2.84,0,1,1-1-3.87A2.84,2.84,0,0,1,901.64,368.25Z" transform="translate(-166.62)"></path><path class="cls-26" d="M916.37,376.77a2.84,2.84,0,1,1-1-3.87A2.84,2.84,0,0,1,916.37,376.77Z" transform="translate(-166.62)"></path><path class="cls-26" d="M931.1,385.29a2.84,2.84,0,1,1-1-3.87A2.84,2.84,0,0,1,931.1,385.29Z" transform="translate(-166.62)"></path><path class="cls-26" d="M945.83,393.81a2.84,2.84,0,1,1-1-3.88A2.84,2.84,0,0,1,945.83,393.81Z" transform="translate(-166.62)"></path><path class="cls-26" d="M960.56,402.33a2.84,2.84,0,1,1-1-3.88A2.84,2.84,0,0,1,960.56,402.33Z" transform="translate(-166.62)"></path><path class="cls-26" d="M975.29,410.85a2.84,2.84,0,1,1-1-3.88A2.84,2.84,0,0,1,975.29,410.85Z" transform="translate(-166.62)"></path><path class="cls-26" d="M986.42,422a6.56,6.56,0,0,1-1.81-1.07c-.48-.36-.81-.56-.9-.86a4.42,4.42,0,0,1,1.2-3.23,2.17,2.17,0,0,1,2.13-.61,3.1,3.1,0,0,1,2.08,2.11,3.28,3.28,0,0,1-.54,3.11A2,2,0,0,1,986.42,422Z" transform="translate(-166.62)"></path><path class="cls-26" d="M972.82,431.68a2.84,2.84,0,1,1,3.87,1.06A2.84,2.84,0,0,1,972.82,431.68Z" transform="translate(-166.62)"></path><path class="cls-26" d="M958.06,440.15a2.84,2.84,0,1,1,3.87,1.05A2.83,2.83,0,0,1,958.06,440.15Z" transform="translate(-166.62)"></path><path class="cls-26" d="M943.3,448.61a2.84,2.84,0,1,1,3.87,1.05A2.83,2.83,0,0,1,943.3,448.61Z" transform="translate(-166.62)"></path><path class="cls-26" d="M928.53,457.08a2.84,2.84,0,1,1,3.87,1.05A2.84,2.84,0,0,1,928.53,457.08Z" transform="translate(-166.62)"></path><path class="cls-26" d="M913.77,465.54a2.84,2.84,0,1,1,3.87,1A2.83,2.83,0,0,1,913.77,465.54Z" transform="translate(-166.62)"></path><path class="cls-26" d="M899,474a2.84,2.84,0,1,1,3.87,1.05A2.83,2.83,0,0,1,899,474Z" transform="translate(-166.62)"></path><path class="cls-26" d="M884.25,482.47a2.84,2.84,0,1,1,3.87,1A2.84,2.84,0,0,1,884.25,482.47Z" transform="translate(-166.62)"></path><path class="cls-26" d="M869.49,490.93a2.84,2.84,0,1,1,3.87,1.05A2.83,2.83,0,0,1,869.49,490.93Z" transform="translate(-166.62)"></path><path class="cls-26" d="M854.72,499.39a2.84,2.84,0,1,1,3.88,1.05A2.83,2.83,0,0,1,854.72,499.39Z" transform="translate(-166.62)"></path><path class="cls-26" d="M840,507.86a2.84,2.84,0,1,1,3.87,1.05A2.84,2.84,0,0,1,840,507.86Z" transform="translate(-166.62)"></path><path class="cls-26" d="M825.2,516.32a2.84,2.84,0,1,1,3.87,1A2.83,2.83,0,0,1,825.2,516.32Z" transform="translate(-166.62)"></path><path class="cls-26" d="M810.44,524.78a2.84,2.84,0,1,1,3.87,1.05A2.83,2.83,0,0,1,810.44,524.78Z" transform="translate(-166.62)"></path><path class="cls-26" d="M795.68,533.25a2.84,2.84,0,1,1,3.87,1A2.84,2.84,0,0,1,795.68,533.25Z" transform="translate(-166.62)"></path><path class="cls-26" d="M780.91,541.71a2.84,2.84,0,1,1,3.87,1A2.83,2.83,0,0,1,780.91,541.71Z" transform="translate(-166.62)"></path><path class="cls-26" d="M766.15,550.17a2.84,2.84,0,1,1,3.87,1.05A2.83,2.83,0,0,1,766.15,550.17Z" transform="translate(-166.62)"></path><path class="cls-26" d="M751.39,558.64a2.84,2.84,0,1,1,3.87,1.05A2.84,2.84,0,0,1,751.39,558.64Z" transform="translate(-166.62)"></path><path class="cls-26" d="M736.63,567.1a2.84,2.84,0,1,1,3.87,1A2.83,2.83,0,0,1,736.63,567.1Z" transform="translate(-166.62)"></path><path class="cls-26" d="M721.87,575.56a2.84,2.84,0,1,1,3.87,1.05A2.83,2.83,0,0,1,721.87,575.56Z" transform="translate(-166.62)"></path><path class="cls-26" d="M707.1,584a2.84,2.84,0,1,1,3.88,1.05A2.84,2.84,0,0,1,707.1,584Z" transform="translate(-166.62)"></path><path class="cls-26" d="M692.34,592.49a2.84,2.84,0,1,1,3.87,1A2.83,2.83,0,0,1,692.34,592.49Z" transform="translate(-166.62)"></path><path class="cls-26" d="M677.58,601a2.84,2.84,0,1,1,3.87,1A2.83,2.83,0,0,1,677.58,601Z" transform="translate(-166.62)"></path><path class="cls-26" d="M662.82,609.42a2.84,2.84,0,1,1,3.87,1.05A2.84,2.84,0,0,1,662.82,609.42Z" transform="translate(-166.62)"></path><path class="cls-26" d="M648.06,617.88a2.84,2.84,0,1,1,3.87,1A2.83,2.83,0,0,1,648.06,617.88Z" transform="translate(-166.62)"></path><path class="cls-26" d="M633.29,626.34a2.84,2.84,0,1,1,3.88,1A2.83,2.83,0,0,1,633.29,626.34Z" transform="translate(-166.62)"></path><path class="cls-26" d="M616.8,627.58a3.07,3.07,0,0,1,3.27-2.05,3,3,0,0,1,2.28,3.14,2.83,2.83,0,1,1-5.55-1.09Z" transform="translate(-166.62)"></path><path class="cls-26" d="M602,619.31a2.84,2.84,0,1,1,1,3.88A2.84,2.84,0,0,1,602,619.31Z" transform="translate(-166.62)"></path><path class="cls-26" d="M587.22,610.79a2.84,2.84,0,1,1,1,3.88A2.84,2.84,0,0,1,587.22,610.79Z" transform="translate(-166.62)"></path><path class="cls-26" d="M572.49,602.27a2.84,2.84,0,1,1,1,3.88A2.84,2.84,0,0,1,572.49,602.27Z" transform="translate(-166.62)"></path><path class="cls-26" d="M557.76,593.75a2.84,2.84,0,1,1,1,3.88A2.84,2.84,0,0,1,557.76,593.75Z" transform="translate(-166.62)"></path><path class="cls-26" d="M543,585.24a2.84,2.84,0,1,1,1,3.87A2.84,2.84,0,0,1,543,585.24Z" transform="translate(-166.62)"></path><path class="cls-26" d="M528.3,576.72a2.84,2.84,0,1,1,1,3.87A2.84,2.84,0,0,1,528.3,576.72Z" transform="translate(-166.62)"></path><path class="cls-26" d="M513.57,568.2a2.84,2.84,0,1,1,1,3.87A2.83,2.83,0,0,1,513.57,568.2Z" transform="translate(-166.62)"></path><path class="cls-4" d="M436.76,657.82,182.29,510.91c-6.06-3.5-5.3-9.62,1.7-13.67L701.4,198.52c7-4,17.59-4.48,23.66-1L979.53,344.46c6.06,3.5,5.3,9.62-1.7,13.66L460.42,656.84C453.42,660.89,442.82,661.33,436.76,657.82Z" transform="translate(-166.62)"></path><path class="cls-27" d="M983.62,290.7l-13,7.79L725.06,156.7c-6.07-3.5-16.66-3.06-23.66,1l-509.26,294-13.94-6.23v19h0c.12,2.12,1.46,4.12,4.08,5.64L436.76,617c6.06,3.5,16.66,3.06,23.66-1L977.83,317.28c3.94-2.28,5.9-5.21,5.79-8h0Z" transform="translate(-166.62)"></path><path class="cls-6" d="M192.14,451.7l-13.94-6.23v19h0c.12,2.12,1.46,4.12,4.08,5.64l.54.31a6,6,0,0,1-1.22-3.19h0v-19l13.94,6.23,19.67-11.36c-.9-1.06-1.82-2.11-2.77-3.12Z" transform="translate(-166.62)"></path><path class="cls-2" d="M970.65,298.49,850.1,228.89l-3.65,2.37,120.92,69.81,13-7.79V311.9h0a7.29,7.29,0,0,1-2.24,5.21c3.76-2.25,5.64-5.11,5.53-7.79h0V290.7Z" transform="translate(-166.62)"></path><path class="cls-28" d="M436.76,598.21,182.29,451.29c-6.06-3.5-5.3-9.62,1.7-13.66L701.4,138.91c7-4,17.59-4.49,23.66-1L979.53,284.84c6.06,3.5,5.3,9.62-1.7,13.66L460.42,597.23C453.42,601.27,442.82,601.71,436.76,598.21Z" transform="translate(-166.62)"></path><path class="cls-6" d="M440.28,598.21,185.81,451.29c-6.06-3.5-5.3-9.62,1.7-13.66L704.92,138.91a26.78,26.78,0,0,1,11.73-3.28,27.86,27.86,0,0,0-15.25,3.28L184,437.63c-7,4-7.76,10.16-1.7,13.66L436.76,598.21c3.14,1.81,7.49,2.55,11.92,2.29A19.58,19.58,0,0,1,440.28,598.21Z" transform="translate(-166.62)"></path><path class="cls-2" d="M979.53,284.84,725.06,137.93c-3.14-1.81-7.48-2.55-11.91-2.3a19.62,19.62,0,0,1,8.51,2.3L976.12,284.84c6.07,3.5,5.31,9.62-1.7,13.66L457,597.23a27.13,27.13,0,0,1-11.75,3.28,28,28,0,0,0,15.15-3.28L977.83,298.5C984.83,294.46,985.59,288.34,979.53,284.84Z" transform="translate(-166.62)"></path><polygon class="cls-29" points="299.16 589.18 31.32 434.54 526.29 148.76 794.13 303.4 299.16 589.18"></polygon><polygon class="cls-30" points="326.52 536.13 123.2 418.74 498.93 201.81 702.25 319.2 326.52 536.13"></polygon><path class="cls-31" d="M851.72,228.39l-28.88-16.68c-1.09-.63-1-1.73.31-2.45h0a4.71,4.71,0,0,1,4.25-.18l28.88,16.67c1.09.63,1,1.73-.3,2.46h0A4.76,4.76,0,0,1,851.72,228.39Z" transform="translate(-166.62)"></path><path class="cls-32" d="M422.77,250.56s12.42-137.22,39-121.8,13.76,95,41.37,110.92c27.17,15.69,12.37-227.22,53.4-203.53,29.44,17,20,201.49,46.3,216.66,29.5,17,21.06-52.46,47.21-49.32,15,1.81,22.88,46.94,44.17,57.13S705.39,75.3,739.06,94.74c34.07,19.67,43.92,364,43.92,364Z" transform="translate(-166.62)"></path><path class="cls-26" d="M463,127.47a5.66,5.66,0,1,1-5.66-5.66A5.66,5.66,0,0,1,463,127.47Z" transform="translate(-166.62)"></path><path class="cls-26" d="M556.82,34.52a5.66,5.66,0,1,1-5.66-5.66A5.66,5.66,0,0,1,556.82,34.52Z" transform="translate(-166.62)"></path><path class="cls-26" d="M655,203.06a5.66,5.66,0,1,1-5.66-5.66A5.66,5.66,0,0,1,655,203.06Z" transform="translate(-166.62)"></path><path class="cls-26" d="M740.28,92.8a5.66,5.66,0,1,1-5.66-5.66A5.67,5.67,0,0,1,740.28,92.8Z" transform="translate(-166.62)"></path><path class="cls-33" d="M340.15,291.33S349.42,155,369.28,166.54s10.27,91.32,30.88,103.22c20.27,11.7,9.23-197.85,39.85-180.17,22,12.69,14.94,82.82,34.55,94.14,22,12.71,18.21-22.15,35.23-12.32s17.08,54.2,33,61.32S551.07,81.07,576.2,95.57C601.63,110.25,609,446.71,609,446.71Z" transform="translate(-166.62)"></path><path class="cls-26" d="M373.31,165.93a5.66,5.66,0,1,1-5.65-5.65A5.65,5.65,0,0,1,373.31,165.93Z" transform="translate(-166.62)"></path><path class="cls-26" d="M442.33,88.53a5.66,5.66,0,1,1-5.65-5.66A5.66,5.66,0,0,1,442.33,88.53Z" transform="translate(-166.62)"></path><path class="cls-26" d="M510.05,170a5.66,5.66,0,1,1-5.66-5.66A5.65,5.65,0,0,1,510.05,170Z" transform="translate(-166.62)"></path><path class="cls-26" d="M578.48,95.08a5.66,5.66,0,1,1-5.65-5.66A5.65,5.65,0,0,1,578.48,95.08Z" transform="translate(-166.62)"></path><polygon class="cls-32" points="282.8 457.22 242.11 433.73 256.34 425.51 297.04 449 282.8 457.22"></polygon><polygon class="cls-33" points="308.16 442.78 267.47 419.29 281.7 411.07 322.39 434.56 308.16 442.78"></polygon><path class="cls-34" d="M367.66,308.41a1.18,1.18,0,0,1-1.18-1.18V165.93a1.18,1.18,0,0,1,2.35,0v141.3A1.17,1.17,0,0,1,367.66,308.41Z" transform="translate(-166.62)"></path><path class="cls-34" d="M436.68,348.3a1.18,1.18,0,0,1-1.18-1.18V88.53a1.18,1.18,0,1,1,2.35,0V347.12A1.17,1.17,0,0,1,436.68,348.3Z" transform="translate(-166.62)"></path><path class="cls-34" d="M504.39,387.44a1.17,1.17,0,0,1-1.17-1.18V170a1.18,1.18,0,1,1,2.35,0V386.26A1.18,1.18,0,0,1,504.39,387.44Z" transform="translate(-166.62)"></path><path class="cls-34" d="M572.83,426.71a1.18,1.18,0,0,1-1.18-1.18v-330a1.18,1.18,0,0,1,2.35,0v330A1.17,1.17,0,0,1,572.83,426.71Z" transform="translate(-166.62)"></path><path class="cls-26" d="M284.29,226.16a1.16,1.16,0,0,1-1-.5,1.17,1.17,0,0,1,.28-1.64l83.26-59L435.8,87.74a1.23,1.23,0,0,1,.9-.39,1.17,1.17,0,0,1,.88.43l66.85,80.41L572,94.28,652.13.41a1.18,1.18,0,0,1,1.66-.13,1.17,1.17,0,0,1,.12,1.66l-80.19,93.9-68.46,74.94a1.16,1.16,0,0,1-.89.38,1.21,1.21,0,0,1-.88-.43l-66.85-80.4-68.11,76.39a1.54,1.54,0,0,1-.19.17L285,225.94A1.17,1.17,0,0,1,284.29,226.16Z" transform="translate(-166.62)"></path><path class="cls-4" d="M917.27,477.82,888.4,461.17c-3.5-2-3.07-5.56,1-7.89l27.82-16.09c4-2.34,10.17-2.59,13.67-.57l28.87,16.65c3.5,2,3.06,5.56-1,7.9l-27.82,16.08C926.89,479.59,920.77,479.84,917.27,477.82Z" transform="translate(-166.62)"></path><path class="cls-35" d="M923,484a15.11,15.11,0,0,1-7.39-1.7l-34.24-19.75c-2-1.17-3.15-2.83-3.15-4.67,0-2.17,1.57-4.32,4.32-5.9l33-19.08c5-2.88,12.57-3.18,16.92-.67l34.24,19.74c2,1.18,3.15,2.83,3.15,4.67,0,2.17-1.57,4.32-4.32,5.9l-33,19.09A19.69,19.69,0,0,1,923,484Zm2.05-52.1a18.1,18.1,0,0,0-8.82,2.21l-33,19.08c-2.3,1.33-3.62,3-3.62,4.69a4.19,4.19,0,0,0,2.46,3.46l34.24,19.75c3.95,2.28,10.92,2,15.52-.67l33-19.08c2.31-1.34,3.62-3,3.62-4.7a4.2,4.2,0,0,0-2.45-3.46l-34.24-19.75A13.68,13.68,0,0,0,925.09,431.86Z" transform="translate(-166.62)"></path><path class="cls-36" d="M962.1,424.75H937.66l-6.79-3.9c-3.5-2-9.63-1.77-13.67.56l-6.72,3.91H886v16.41h0c-.1,1.37.67,2.69,2.35,3.67L917.27,462c3.5,2,9.62,1.77,13.67-.56l27.82-16.09c2.1-1.21,3.22-2.75,3.33-4.23h0Z" transform="translate(-166.62)"></path><path class="cls-37" d="M958.76,444.26l-27.82,16.08c-4.05,2.34-10.17,2.6-13.67.57L888.4,444.26c-1.68-1-2.45-2.29-2.35-3.66h0v1.13h0c-.1,1.37.67,2.69,2.35,3.67L917.27,462c3.5,2,9.62,1.77,13.67-.56l27.82-16.09c2.1-1.21,3.22-2.75,3.33-4.23h0V440h0C962,441.51,960.86,443,958.76,444.26Z" transform="translate(-166.62)"></path><path class="cls-6" d="M887.59,442.86h0V426.45H912l6.72-3.91c4-2.33,10.17-2.59,13.67-.56l6.79,3.9h22.9v-1.13H937.66l-6.79-3.9c-3.5-2-9.63-1.77-13.67.56l-6.72,3.91H886v16.41h0c-.1,1.37.67,2.69,2.35,3.67l.28.16A3.46,3.46,0,0,1,887.59,442.86Z" transform="translate(-166.62)"></path><path class="cls-38" d="M917.27,445.63,888.4,429c-3.5-2-3.07-5.56,1-7.89L917.2,405c4-2.34,10.17-2.59,13.67-.57l28.87,16.65c3.5,2,3.06,5.56-1,7.9l-27.82,16.08C926.89,447.4,920.77,447.65,917.27,445.63Z" transform="translate(-166.62)"></path><path class="cls-2" d="M959.74,421.08l-28.87-16.65a12.75,12.75,0,0,0-6.9-1.33,11.41,11.41,0,0,1,5,1.33l28.87,16.65c3.5,2,3.06,5.56-1,7.9L929,445.06a15.44,15.44,0,0,1-6.77,1.9,16,16,0,0,0,8.7-1.9L958.76,429C962.8,426.64,963.24,423.11,959.74,421.08Z" transform="translate(-166.62)"></path><path class="cls-6" d="M919.48,445.63,890.61,429c-3.5-2-3.06-5.56,1-7.89L919.41,405a15.54,15.54,0,0,1,6.66-1.89A16.07,16.07,0,0,0,917.2,405l-27.82,16.09c-4,2.33-4.48,5.87-1,7.89l28.87,16.65a12.86,12.86,0,0,0,7,1.33A11.28,11.28,0,0,1,919.48,445.63Z" transform="translate(-166.62)"></path><path class="cls-2" d="M938.18,433.18c-7.79,4.5-20.43,4.5-28.22,0s-7.8-11.8,0-16.3,20.43-4.5,28.22,0S946,428.68,938.18,433.18Z" transform="translate(-166.62)"></path><path class="cls-11" d="M910,421.18c7.79-4.5,20.43-4.5,28.22,0,3,1.7,4.78,3.8,5.5,6,1.18-3.62-.65-7.5-5.5-10.3-7.79-4.5-20.43-4.5-28.22,0-4.85,2.8-6.68,6.68-5.5,10.3C905.18,425,907,422.88,910,421.18Z" transform="translate(-166.62)"></path><path class="cls-4" d="M805.42,544.07l-28.87-16.65c-3.51-2-3.07-5.56,1-7.9l27.82-16.08c4-2.34,10.16-2.59,13.67-.57l28.87,16.65c3.5,2,3.06,5.56-1,7.89L819.09,543.5C815,545.84,808.92,546.09,805.42,544.07Z" transform="translate(-166.62)"></path><path class="cls-39" d="M811.19,550.2a14.87,14.87,0,0,1-7.39-1.7l-34.24-19.74c-2-1.18-3.16-2.83-3.16-4.67,0-2.17,1.58-4.32,4.32-5.9l33-19.09c5-2.87,12.57-3.18,16.91-.67l34.25,19.75c2,1.17,3.15,2.83,3.15,4.67,0,2.17-1.57,4.32-4.32,5.9l-33,19.08A19.58,19.58,0,0,1,811.19,550.2Zm2-52.09a18.2,18.2,0,0,0-8.82,2.2l-33,19.08c-2.3,1.34-3.62,3-3.62,4.7a4.17,4.17,0,0,0,2.46,3.46L804.5,547.3c4,2.28,10.92,2,15.52-.68l33-19.08c2.3-1.33,3.62-3,3.62-4.69a4.18,4.18,0,0,0-2.45-3.46l-34.24-19.75A13.68,13.68,0,0,0,813.24,498.11Z" transform="translate(-166.62)"></path><path class="cls-40" d="M850.25,491H825.81l-6.79-3.9c-3.51-2-9.63-1.77-13.67.57l-6.72,3.91H774.19V508h0c-.1,1.37.66,2.69,2.35,3.66l28.87,16.65c3.5,2,9.62,1.77,13.67-.57l27.82-16.08c2.1-1.22,3.22-2.75,3.33-4.23h0Z" transform="translate(-166.62)"></path><path class="cls-41" d="M846.91,510.51l-27.82,16.08c-4.05,2.34-10.17,2.59-13.67.57l-28.87-16.65c-1.69-1-2.45-2.29-2.35-3.66h0V508h0c-.1,1.37.66,2.69,2.35,3.66l28.87,16.65c3.5,2,9.62,1.77,13.67-.57l27.82-16.08c2.1-1.22,3.22-2.75,3.33-4.23h0v-1.14h0C850.13,507.76,849,509.29,846.91,510.51Z" transform="translate(-166.62)"></path><path class="cls-6" d="M775.74,509.11h0V492.7h24.43l6.72-3.91c4.05-2.33,10.17-2.59,13.67-.56l6.79,3.9h22.9V491H825.81l-6.79-3.9c-3.5-2-9.63-1.77-13.67.57l-6.72,3.91H774.19V508h0c-.1,1.37.66,2.69,2.35,3.66l.28.16A3.4,3.4,0,0,1,775.74,509.11Z" transform="translate(-166.62)"></path><path class="cls-42" d="M805.42,511.88l-28.87-16.65c-3.51-2-3.07-5.56,1-7.89l27.82-16.09c4-2.34,10.16-2.59,13.67-.57l28.87,16.65c3.5,2,3.06,5.56-1,7.9l-27.82,16.08C815,513.65,808.92,513.9,805.42,511.88Z" transform="translate(-166.62)"></path><path class="cls-2" d="M847.89,487.33,819,470.68a12.68,12.68,0,0,0-6.9-1.33,11.41,11.41,0,0,1,5,1.33L846,487.33c3.5,2,3.06,5.56-1,7.9l-27.82,16.08a15.44,15.44,0,0,1-6.77,1.9,16.09,16.09,0,0,0,8.7-1.9l27.82-16.08C851,492.89,851.39,489.35,847.89,487.33Z" transform="translate(-166.62)"></path><path class="cls-6" d="M807.63,511.88l-28.87-16.65c-3.51-2-3.07-5.56,1-7.89l27.82-16.09a15.54,15.54,0,0,1,6.66-1.89,16.07,16.07,0,0,0-8.87,1.89l-27.82,16.09c-4,2.33-4.49,5.87-1,7.89l28.87,16.65a12.75,12.75,0,0,0,7,1.32A11.13,11.13,0,0,1,807.63,511.88Z" transform="translate(-166.62)"></path><path class="cls-2" d="M826.33,499.43c-7.79,4.5-20.43,4.5-28.23,0s-7.79-11.8,0-16.3,20.44-4.5,28.23,0S834.13,494.93,826.33,499.43Z" transform="translate(-166.62)"></path><path class="cls-11" d="M798.1,487.43c7.8-4.5,20.44-4.5,28.23,0,2.95,1.7,4.78,3.8,5.5,6,1.18-3.62-.65-7.5-5.5-10.3-7.79-4.5-20.43-4.5-28.23,0-4.84,2.8-6.67,6.68-5.49,10.3C793.33,491.23,795.16,489.13,798.1,487.43Z" transform="translate(-166.62)"></path><path class="cls-4" d="M693.56,610.32,664.7,593.67c-3.51-2-3.07-5.56,1-7.9l27.81-16.08c4-2.34,10.17-2.59,13.68-.57L736,585.77c3.5,2,3.06,5.56-1,7.89l-27.81,16.09C703.19,612.09,697.07,612.34,693.56,610.32Z" transform="translate(-166.62)"></path><path class="cls-43" d="M699.34,616.45a15,15,0,0,1-7.39-1.7L657.71,595c-2-1.18-3.16-2.84-3.16-4.67,0-2.17,1.58-4.32,4.32-5.91l33-19.08c5-2.88,12.57-3.18,16.91-.67L743,584.43c2,1.17,3.16,2.83,3.16,4.67,0,2.17-1.58,4.32-4.32,5.9l-33,19.08A19.58,19.58,0,0,1,699.34,616.45Zm2-52.09a18.15,18.15,0,0,0-8.83,2.2l-33,19.08c-2.3,1.33-3.62,3-3.62,4.7,0,1.31.87,2.54,2.46,3.46l34.24,19.74c4,2.29,10.92,2,15.52-.67l33-19.08c2.3-1.33,3.62-3,3.62-4.69a4.17,4.17,0,0,0-2.46-3.46l-34.24-19.75A13.64,13.64,0,0,0,701.39,564.36Z" transform="translate(-166.62)"></path><path class="cls-44" d="M738.4,557.24H714l-6.78-3.9c-3.51-2-9.63-1.77-13.68.57l-6.71,3.91H662.34v16.41h0c-.1,1.37.66,2.69,2.35,3.66l28.86,16.65c3.51,2,9.63,1.77,13.68-.57l27.81-16.08c2.11-1.22,3.23-2.76,3.33-4.24h0Z" transform="translate(-166.62)"></path><path class="cls-45" d="M735.05,576.75l-27.81,16.09c-4,2.34-10.17,2.59-13.68.57L664.7,576.76c-1.69-1-2.45-2.29-2.35-3.66h0v1.13h0c-.1,1.37.66,2.69,2.35,3.66l28.86,16.65c3.51,2,9.63,1.77,13.68-.57l27.81-16.08c2.11-1.22,3.23-2.76,3.33-4.24h0v-1.13h0C738.28,574,737.16,575.54,735.05,576.75Z" transform="translate(-166.62)"></path><path class="cls-6" d="M663.89,575.36h0V559h24.44L695,555c4-2.34,10.17-2.59,13.67-.57l6.79,3.9h22.9v-1.13H714l-6.78-3.9c-3.51-2-9.63-1.77-13.68.57l-6.71,3.91H662.34v16.41h0c-.1,1.37.66,2.69,2.35,3.66l.27.16A3.45,3.45,0,0,1,663.89,575.36Z" transform="translate(-166.62)"></path><path class="cls-46" d="M693.56,578.13,664.7,561.48c-3.51-2-3.07-5.56,1-7.9l27.81-16.08c4-2.34,10.17-2.59,13.68-.57L736,553.58c3.5,2,3.06,5.56-1,7.89l-27.81,16.09C703.19,579.9,697.07,580.15,693.56,578.13Z" transform="translate(-166.62)"></path><path class="cls-2" d="M736,553.58l-28.87-16.65a12.68,12.68,0,0,0-6.9-1.33,11.45,11.45,0,0,1,5,1.33l28.87,16.65c3.5,2,3.06,5.56-1,7.89l-27.81,16.09a15.57,15.57,0,0,1-6.77,1.9,16.09,16.09,0,0,0,8.7-1.9l27.81-16.09C739.1,559.14,739.54,555.6,736,553.58Z" transform="translate(-166.62)"></path><path class="cls-6" d="M695.78,578.13l-28.87-16.65c-3.51-2-3.07-5.56,1-7.9l27.82-16.08a15.55,15.55,0,0,1,6.66-1.9,16.18,16.18,0,0,0-8.88,1.9l-27.81,16.08c-4,2.34-4.49,5.88-1,7.9l28.86,16.65a12.79,12.79,0,0,0,7,1.32A11.27,11.27,0,0,1,695.78,578.13Z" transform="translate(-166.62)"></path><path class="cls-2" d="M714.48,565.68c-7.79,4.5-20.43,4.5-28.23,0s-7.79-11.8,0-16.3,20.43-4.5,28.23,0S722.28,561.18,714.48,565.68Z" transform="translate(-166.62)"></path><path class="cls-11" d="M686.25,553.67c7.8-4.5,20.43-4.5,28.23,0,2.95,1.71,4.78,3.81,5.49,6,1.19-3.62-.64-7.5-5.49-10.3-7.8-4.5-20.43-4.5-28.23,0-4.85,2.8-6.67,6.68-5.49,10.3C681.48,557.48,683.3,555.37,686.25,553.67Z" transform="translate(-166.62)"></path></svg>